<?xml version="1.0" encoding="UTF-8"?>
<svg id="Layer_1" data-name="Layer 1" xmlns="http://www.w3.org/2000/svg" xmlns:xlink="http://www.w3.org/1999/xlink" version="1.1" viewBox="0 0 512 512">
  <defs>
    <style>
      .cls-1 {
        fill: #fff200;
      }

      .cls-1, .cls-2, .cls-3, .cls-4 {
        stroke-width: 0px;
      }

      .cls-2 {
        fill: #6d6e71;
      }

      .cls-3 {
        fill: #fff;
        filter: url(#drop-shadow-1);
      }

      .cls-4 {
        fill: #f1f2f2;
      }
    </style>
    <filter id="drop-shadow-1" filterUnits="userSpaceOnUse">
      <feOffset dx="0" dy="0"/>
      <feGaussianBlur result="blur" stdDeviation="3"/>
      <feFlood flood-color="#231f20" flood-opacity=".75"/>
      <feComposite in2="blur" operator="in"/>
      <feComposite in="SourceGraphic"/>
    </filter>
  </defs>
  <path class="cls-3" d="M256.21,24.33l213.5,172.92s2.65,4.13,2.65,13.24v268.2s.23,8.38-8.38,8.38H48.88s-7.72,3.8-7.72-7.72-1.1-268.87-1.1-268.87c0,0-2.01-8.58,2.65-13.24,4.66-4.66,213.5-172.92,213.5-172.92Z"/>
  <g>
    <polygon class="cls-4" points="102.7 260.77 102.7 260.77 43.59 213.13 40.06 210.48 40.06 480.45 191.81 333.12 102.7 260.77"/>
    <polygon class="cls-4" points="321.5 332.23 472.37 478.69 472.37 210.48 321.5 332.23"/>
    <path class="cls-4" d="M198.87,340.17L48.88,486.63h414.66l-150.87-147.34s-33.87,24.79-56.13,24.79-57.68-23.91-57.68-23.91Z"/>
  </g>
  <path class="cls-1" d="M399.14,255.48s-98.38,92.57-142.64,92.57-143.22-92.57-143.22-92.57V77.26h285.86v178.22Z"/>
  <path class="cls-2" d="M143.39,156.69h131.35c2.86,0,5.72,2.64,5.72,5.29s-2.86,5.3-5.72,5.3h-131.35c-2.86,0-5.71-2.65-5.71-5.3s2.85-5.29,5.71-5.29Z"/>
  <path class="cls-2" d="M143.39,200.8h226.55c2.85,0,5.71,2.64,5.71,5.29s-2.86,5.3-5.71,5.3h-226.55c-2.86,0-5.71-2.65-5.71-5.3s2.85-5.29,5.71-5.29Z"/>
  <path class="cls-2" d="M137.68,250.21c0-2.65,2.85-5.29,5.71-5.29h226.55c2.85,0,5.71,2.64,5.71,5.29s-2.86,5.3-5.71,5.3h-226.55c-2.86,0-5.71-2.65-5.71-5.3Z"/>
</svg>