<?xml version="1.0" encoding="UTF-8"?>
<svg id="Layer_1" data-name="Layer 1" xmlns="http://www.w3.org/2000/svg" xmlns:xlink="http://www.w3.org/1999/xlink" viewBox="0 0 512 512">
  <defs>
    <style>
      .cls-1 {
        fill: url(#linear-gradient);
      }

      .cls-1, .cls-2, .cls-3 {
        stroke-width: 0px;
      }

      .cls-2 {
        fill: url(#linear-gradient-2);
      }

      .cls-3 {
        fill: url(#linear-gradient-3);
      }
    </style>
    <linearGradient id="linear-gradient" x1="94.71" y1="479.25" x2="94.71" y2="330.42" gradientUnits="userSpaceOnUse">
      <stop offset="0" stop-color="#ed1e7f"/>
      <stop offset="1" stop-color="#6f4a9e"/>
    </linearGradient>
    <linearGradient id="linear-gradient-2" x1="119.52" y1="181.58" x2="119.52" y2="32.75" xlink:href="#linear-gradient"/>
    <linearGradient id="linear-gradient-3" x1="293.16" y1="454.54" x2="293.16" y2="57.46" xlink:href="#linear-gradient"/>
  </defs>
  <path class="cls-1" d="M144.33,380.03h-24.81v-24.81c0-13.7-11.11-24.81-24.81-24.81s-24.81,11.11-24.81,24.81v24.81h-24.81c-13.7,0-24.81,11.11-24.81,24.81s11.11,24.81,24.81,24.81h24.81v24.81c0,13.7,11.11,24.81,24.81,24.81s24.81-11.11,24.81-24.81v-24.81h24.81c13.7,0,24.81-11.11,24.81-24.81s-11.11-24.81-24.81-24.81Z"/>
  <path class="cls-2" d="M169.13,82.36h-24.81v-24.81c0-13.7-11.11-24.81-24.81-24.81s-24.81,11.11-24.81,24.81v24.81h-24.81c-13.7,0-24.81,11.11-24.81,24.81s11.11,24.81,24.81,24.81h24.81v24.81c0,13.7,11.11,24.81,24.81,24.81s24.81-11.11,24.81-24.81v-24.81h24.81c13.7,0,24.81-11.11,24.81-24.81s-11.11-24.81-24.81-24.81Z"/>
  <path class="cls-3" d="M472.86,228.31l-93.76-36.98c-5.99-2.36-11.65-4.6-12.91-5.49-1.11-.79-2.07-1.76-2.87-2.87-.89-1.25-3.13-6.91-5.49-12.9l-36.98-93.76c-4.48-11.37-15.47-18.85-27.69-18.85s-23.21,7.47-27.69,18.85l-36.98,93.76c-2.36,5.99-4.59,11.65-5.49,12.91-.79,1.11-1.76,2.07-2.87,2.87-1.25.89-6.91,3.13-12.9,5.49l-93.76,36.98c-11.37,4.48-18.85,15.47-18.85,27.69s7.47,23.21,18.85,27.69l93.76,36.98c5.99,2.36,11.65,4.6,12.91,5.5,1.1.79,2.07,1.75,2.87,2.87.89,1.24,3.12,6.9,5.49,12.9l36.98,93.76c4.48,11.37,15.47,18.85,27.69,18.85s23.21-7.47,27.69-18.85l36.98-93.76c2.36-5.99,4.59-11.65,5.5-12.91.79-1.1,1.75-2.07,2.87-2.87,1.24-.89,6.9-3.13,12.9-5.49l93.76-36.98c11.37-4.48,18.85-15.47,18.85-27.69s-7.47-23.21-18.85-27.69Z"/>
</svg>